<svg width="1069" height="1024" viewBox="0 0 1069 1024" fill="none" xmlns="http://www.w3.org/2000/svg">
<path d="M1041.44 731.012C1080.98 804.02 1076.42 867.902 1027.75 922.658C979.078 977.414 919.759 1011.38 849.793 1024.57C779.827 1037.75 705.298 1076.28 626.206 1140.16C547.114 1204.04 458.389 1224.32 360.031 1201C261.673 1177.68 172.948 1129.01 93.8559 1054.99C14.7639 980.963 -14.1351 890.21 7.15891 782.726C28.4529 675.242 46.1979 575.87 60.3939 484.61C74.5899 393.35 99.4329 297.527 134.923 197.141C170.413 96.7551 237.844 25.2681 337.216 -17.32C436.588 -59.908 537.481 -70.555 639.895 -49.261C742.309 -27.967 813.289 33.8871 852.835 136.301C892.381 238.715 920.266 320.342 936.49 381.182C952.714 442.022 964.375 497.285 971.473 546.971C978.571 596.657 1001.89 658.004 1041.44 731.012Z" fill="#D1D8E0"/>
</svg>
